<svg xmlns="http://www.w3.org/2000/svg" xmlns:xlink="http://www.w3.org/1999/xlink" width="512" zoomAndPan="magnify" viewBox="0 0 384 383.999986" height="512" preserveAspectRatio="xMidYMid meet" version="1.0"><defs><clipPath id="774959518e"><path d="M 129.136719 78.957031 L 352.535156 78.957031 L 352.535156 274.144531 L 129.136719 274.144531 Z M 129.136719 78.957031 " clip-rule="nonzero"/></clipPath><clipPath id="78dcffca75"><path d="M 240.671875 78.957031 L 352.207031 274.144531 L 129.136719 274.144531 Z M 240.671875 78.957031 " clip-rule="nonzero"/></clipPath><clipPath id="5281333300"><path d="M 0.136719 0.957031 L 223.320312 0.957031 L 223.320312 196.144531 L 0.136719 196.144531 Z M 0.136719 0.957031 " clip-rule="nonzero"/></clipPath><clipPath id="8a942052ec"><path d="M 111.671875 0.957031 L 223.207031 196.144531 L 0.136719 196.144531 Z M 111.671875 0.957031 " clip-rule="nonzero"/></clipPath><clipPath id="5f8592ecea"><rect x="0" width="224" y="0" height="197"/></clipPath><clipPath id="ecdb268ffa"><path d="M 34.21875 78.957031 L 257.613281 78.957031 L 257.613281 274.144531 L 34.21875 274.144531 Z M 34.21875 78.957031 " clip-rule="nonzero"/></clipPath><clipPath id="52f654f429"><path d="M 145.753906 78.957031 L 257.289062 274.144531 L 34.21875 274.144531 Z M 145.753906 78.957031 " clip-rule="nonzero"/></clipPath><clipPath id="4cfbe77b2c"><path d="M 0.21875 0.957031 L 223.519531 0.957031 L 223.519531 196.144531 L 0.21875 196.144531 Z M 0.21875 0.957031 " clip-rule="nonzero"/></clipPath><clipPath id="3ac3004bfd"><path d="M 111.753906 0.957031 L 223.289062 196.144531 L 0.21875 196.144531 Z M 111.753906 0.957031 " clip-rule="nonzero"/></clipPath><clipPath id="85081d6f8c"><rect x="0" width="224" y="0" height="197"/></clipPath><clipPath id="5f26f9a17a"><path d="M 141 61 L 305 61 L 305 323 L 141 323 Z M 141 61 " clip-rule="nonzero"/></clipPath><clipPath id="39e736fb4f"><path d="M 161.117188 61.851562 L 304.25 310.792969 L 284.488281 322.152344 L 141.359375 73.210938 Z M 161.117188 61.851562 " clip-rule="nonzero"/></clipPath><clipPath id="82e241cd62"><path d="M 0.121094 0.679688 L 163.320312 0.679688 L 163.320312 261.320312 L 0.121094 261.320312 Z M 0.121094 0.679688 " clip-rule="nonzero"/></clipPath><clipPath id="6b8140145c"><path d="M 20.117188 0.851562 L 163.25 249.792969 L 143.488281 261.152344 L 0.359375 12.210938 Z M 20.117188 0.851562 " clip-rule="nonzero"/></clipPath><clipPath id="e976edbda5"><rect x="0" width="164" y="0" height="262"/></clipPath><clipPath id="106fd14158"><path d="M 82.222656 192 L 198 192 L 198 298.449219 L 82.222656 298.449219 Z M 82.222656 192 " clip-rule="nonzero"/></clipPath><clipPath id="566edec324"><path d="M 140.105469 192 L 197.984375 298.449219 L 82.222656 298.449219 Z M 140.105469 192 " clip-rule="nonzero"/></clipPath><clipPath id="4067e85308"><path d="M 0.222656 0 L 116 0 L 116 106.449219 L 0.222656 106.449219 Z M 0.222656 0 " clip-rule="nonzero"/></clipPath><clipPath id="40b6b0886b"><path d="M 58.105469 0 L 115.984375 106.449219 L 0.222656 106.449219 Z M 58.105469 0 " clip-rule="nonzero"/></clipPath><clipPath id="29d06fa081"><rect x="0" width="116" y="0" height="107"/></clipPath><clipPath id="a8b2a3dbf8"><path d="M 82.222656 225.121094 L 129.164062 225.121094 L 129.164062 274.261719 L 82.222656 274.261719 Z M 82.222656 225.121094 " clip-rule="nonzero"/></clipPath><clipPath id="3f141fc683"><path d="M 129.164062 274.144531 L 82.222656 274.144531 L 82.222656 225.121094 Z M 129.164062 274.144531 " clip-rule="nonzero"/></clipPath><clipPath id="fecb58122a"><path d="M 0.222656 0.121094 L 47.164062 0.121094 L 47.164062 49.261719 L 0.222656 49.261719 Z M 0.222656 0.121094 " clip-rule="nonzero"/></clipPath><clipPath id="a37e531aa7"><path d="M 47.164062 49.144531 L 0.222656 49.144531 L 0.222656 0.121094 Z M 47.164062 49.144531 " clip-rule="nonzero"/></clipPath><clipPath id="3c6b50076d"><rect x="0" width="48" y="0" height="50"/></clipPath><clipPath id="b5b7540ba3"><path d="M 322.683594 225.121094 L 369.625 225.121094 L 369.625 274.261719 L 322.683594 274.261719 Z M 322.683594 225.121094 " clip-rule="nonzero"/></clipPath><clipPath id="5bbaba5fe3"><path d="M 369.625 274.144531 L 322.683594 274.144531 L 322.683594 225.121094 Z M 369.625 274.144531 " clip-rule="nonzero"/></clipPath><clipPath id="6e8cd1d039"><path d="M 0.683594 0.121094 L 47.625 0.121094 L 47.625 49.261719 L 0.683594 49.261719 Z M 0.683594 0.121094 " clip-rule="nonzero"/></clipPath><clipPath id="3a6d53e766"><path d="M 47.625 49.144531 L 0.683594 49.144531 L 0.683594 0.121094 Z M 47.625 49.144531 " clip-rule="nonzero"/></clipPath><clipPath id="08ea1854bd"><rect x="0" width="48" y="0" height="50"/></clipPath><clipPath id="c74a077cfc"><path d="M 14.375 227.199219 L 63.519531 227.199219 L 63.519531 274.140625 L 14.375 274.140625 Z M 14.375 227.199219 " clip-rule="nonzero"/></clipPath><clipPath id="e8ddbb850f"><path d="M 63.402344 227.199219 L 63.402344 274.140625 L 14.375 274.140625 Z M 63.402344 227.199219 " clip-rule="nonzero"/></clipPath><clipPath id="29f9d95a43"><path d="M 0.375 0.199219 L 49.519531 0.199219 L 49.519531 47.140625 L 0.375 47.140625 Z M 0.375 0.199219 " clip-rule="nonzero"/></clipPath><clipPath id="69e437a8b0"><path d="M 49.402344 0.199219 L 49.402344 47.140625 L 0.375 47.140625 Z M 49.402344 0.199219 " clip-rule="nonzero"/></clipPath><clipPath id="813e1da55a"><rect x="0" width="50" y="0" height="48"/></clipPath></defs><rect x="-38.4" width="460.8" fill="#ffffff" y="-38.399999" height="460.799983" fill-opacity="1"/><rect x="-38.4" width="460.8" fill="#ffffff" y="-38.399999" height="460.799983" fill-opacity="1"/><g clip-path="url(#774959518e)"><g clip-path="url(#78dcffca75)"><g transform="matrix(1, 0, 0, 1, 129, 78)"><g clip-path="url(#5f8592ecea)"><g clip-path="url(#5281333300)"><g clip-path="url(#8a942052ec)"><path fill="#3b82f6" d="M 0.136719 0.957031 L 223.535156 0.957031 L 223.535156 196.144531 L 0.136719 196.144531 Z M 0.136719 0.957031 " fill-opacity="1" fill-rule="nonzero"/></g></g></g></g></g></g><g clip-path="url(#ecdb268ffa)"><g clip-path="url(#52f654f429)"><g transform="matrix(1, 0, 0, 1, 34, 78)"><g clip-path="url(#85081d6f8c)"><g clip-path="url(#4cfbe77b2c)"><g clip-path="url(#3ac3004bfd)"><path fill="#3b82f6" d="M 0.21875 0.957031 L 223.613281 0.957031 L 223.613281 196.144531 L 0.21875 196.144531 Z M 0.21875 0.957031 " fill-opacity="1" fill-rule="nonzero"/></g></g></g></g></g></g><g clip-path="url(#5f26f9a17a)"><g clip-path="url(#39e736fb4f)"><g transform="matrix(1, 0, 0, 1, 141, 61)"><g clip-path="url(#e976edbda5)"><g clip-path="url(#82e241cd62)"><g clip-path="url(#6b8140145c)"><path fill="#ffffff" d="M 20.117188 0.851562 L 163.238281 249.773438 L 143.480469 261.132812 L 0.359375 12.210938 Z M 20.117188 0.851562 " fill-opacity="1" fill-rule="nonzero"/></g></g></g></g></g></g><g clip-path="url(#106fd14158)"><g clip-path="url(#566edec324)"><g transform="matrix(1, 0, 0, 1, 82, 192)"><g clip-path="url(#29d06fa081)"><g clip-path="url(#4067e85308)"><g clip-path="url(#40b6b0886b)"><path fill="#ffffff" d="M 0.222656 0 L 115.820312 0 L 115.820312 106.449219 L 0.222656 106.449219 Z M 0.222656 0 " fill-opacity="1" fill-rule="nonzero"/></g></g></g></g></g></g><g clip-path="url(#a8b2a3dbf8)"><g clip-path="url(#3f141fc683)"><g transform="matrix(1, 0, 0, 1, 82, 225)"><g clip-path="url(#3c6b50076d)"><g clip-path="url(#fecb58122a)"><g clip-path="url(#a37e531aa7)"><path fill="#3b82f6" d="M 0.222656 0.121094 L 47.164062 0.121094 L 47.164062 49.078125 L 0.222656 49.078125 Z M 0.222656 0.121094 " fill-opacity="1" fill-rule="nonzero"/></g></g></g></g></g></g><g clip-path="url(#b5b7540ba3)"><g clip-path="url(#5bbaba5fe3)"><g transform="matrix(1, 0, 0, 1, 322, 225)"><g clip-path="url(#08ea1854bd)"><g clip-path="url(#6e8cd1d039)"><g clip-path="url(#3a6d53e766)"><path fill="#3b82f6" d="M 0.683594 0.121094 L 47.625 0.121094 L 47.625 49.078125 L 0.683594 49.078125 Z M 0.683594 0.121094 " fill-opacity="1" fill-rule="nonzero"/></g></g></g></g></g></g><g clip-path="url(#c74a077cfc)"><g clip-path="url(#e8ddbb850f)"><g transform="matrix(1, 0, 0, 1, 14, 227)"><g clip-path="url(#813e1da55a)"><g clip-path="url(#29f9d95a43)"><g clip-path="url(#69e437a8b0)"><path fill="#3b82f6" d="M 0.375 47.140625 L 0.375 0.199219 L 49.335938 0.199219 L 49.335938 47.140625 Z M 0.375 47.140625 " fill-opacity="1" fill-rule="nonzero"/></g></g></g></g></g></g></svg>